<svg xmlns="http://www.w3.org/2000/svg"  viewBox="0 0 24 24" width="24px" height="24px"><path d="M1.993,11.993c0-5.52,4.48-10,10-10	s10,4.48,10,10c0,4.48-2.947,8.28-7,9.547v-5.507c0-0.133-0.013-0.253-0.027-0.386l-0.04-0.227c1.733-0.733,3.067-2.146,3.067-3.92	c0-1.013-0.44-1.906-1.107-2.613l0.027-0.227c0.08-0.64,0.093-1.294,0.04-1.973L16.886,5.74l-0.92,0.293	c-0.68,0.227-1.333,0.534-1.973,0.934l-0.32,0.227l-0.133-0.04c-0.493-0.094-1.013-0.147-1.547-0.147	c-0.547,0-1.067,0.053-1.56,0.147l-0.133,0.04l-0.32-0.227c-0.627-0.4-1.293-0.706-1.973-0.934L7.099,5.74l-0.08,0.947	c-0.053,0.68-0.04,1.333,0.04,1.973l0.04,0.227c-0.68,0.707-1.107,1.6-1.107,2.613c0,1.787,1.32,3.187,3.067,3.92l-0.04,0.227	C9.006,15.78,8.993,15.9,8.993,16.033V16.5H8.246c-0.12,0-0.227-0.027-0.32-0.066c-0.107-0.053-0.213-0.12-0.333-0.24	c-0.253-0.227-0.507-0.587-0.773-0.906L6.353,14.7l-1.16,0.947l0.467,0.587c0.12,0.16,0.267,0.333,0.413,0.52	c0.147,0.174,0.32,0.374,0.507,0.547c0.2,0.187,0.44,0.36,0.72,0.493c0.28,0.12,0.587,0.2,0.947,0.2h0.747v3.547	C4.939,20.273,1.993,16.473,1.993,11.993z"/></svg>